# xmcd
#
# Track frame offsets: 
#        150
#        17367
#        37646
#        52005
#        76003
#        98677
#        116789
#        145367
#        166569
#        180641
#        195687
#        218718
#
# Disc length: 3216 seconds
#
# Revision: 0
# Processed by: cddbd v1.5.2PL0 Copyright (c) Steve Scherf et al.
# Submitted via: ExactAudioCopy v1.3
#
DISCID=8d0c8e0c
DTITLE=2 Blue Shoes - 2 Blue Shoes on 2-ER
DYEAR=2005
DGENRE=Blues
TTITLE0=She Caught the Katy
TTITLE1=Giant Step
TTITLE2=Blue Shoes Fall From The Sky
TTITLE3=Thrill Is Gone
TTITLE4=Invitation to the Blues
TTITLE5=Rad Gumbo
TTITLE6=Temptation
TTITLE7=Suffer if YOu Want to Sing The Blues
TTITLE8=Iron Ore Betty
TTITLE9=She Just Wants to Dance
TTITLE10=Suit of Worried Blues
TTITLE11=Redemption Song
EXTD=
EXTT0=
EXTT1=
EXTT2=
EXTT3=
EXTT4=
EXTT5=
EXTT6=
EXTT7=
EXTT8=
EXTT9=
EXTT10=
EXTT11=
PLAYORDER=
